<?xml version="1.0" encoding="UTF-8"?>
<svg id="_圖層_2" data-name="圖層 2" xmlns="http://www.w3.org/2000/svg" viewBox="0 0 272.6 272.6">
  <defs>
    <style>
      .cls-1 {
        fill: #18b4b9;
      }

      .cls-2 {
        fill: #fff;
      }

      .cls-3 {
        fill: #009c8a;
      }

      .cls-4 {
        fill: #17618b;
      }

      .cls-5 {
        fill: #007143;
      }

      .cls-6 {
        fill: #d0d600;
      }

      .cls-7 {
        fill: #65c4e1;
      }

      .cls-8 {
        fill: #429547;
      }

      .cls-9 {
        fill: #e7410b;
      }

      .cls-10 {
        fill: #f4a000;
      }
    </style>
  </defs>
  <g id="_圖層_1-2" data-name="圖層 1">
    <g>
      <g>
        <path class="cls-5" d="M216.63,103.31c-6.51-15.09-10.4-29.23-11.96-35.37-6.1-1.54-20.11-5.4-35.1-11.83-15.18-6.06-27.85-13.25-33.27-16.49-5.43,3.25-18.19,10.48-33.45,16.56-14.92,6.38-28.83,10.23-34.92,11.76-1.55,6.14-5.44,20.27-11.95,35.36-6.02,15.07-13.15,27.62-16.37,33.01,3.25,5.44,10.49,18.2,16.57,33.47,6.38,14.91,10.22,28.82,11.75,34.9,6.13,1.55,20.18,5.43,35.21,11.89,15.14,6.05,27.76,13.2,33.17,16.43,5.39-3.22,17.93-10.34,32.99-16.37,15.1-6.5,29.23-10.4,35.38-11.95,1.53-6.1,5.37-20,11.75-34.91,6.08-15.28,13.31-28.02,16.57-33.46-3.23-5.39-10.34-17.93-16.37-32.99Z"/>
        <path class="cls-1" d="M39.18,134.27c-5.46-9.98-9.27-17.8-10.5-21.22-1.64-4.6-3.4-9.07-4.47-13.64-.64-2.68-1.12-5.36-1.45-8.03-.04-.38-.07-.76-.12-1.14-.04-.35-.06-.7-.1-1.05-4.73,3.92-8.86,8.33-12.22,13.16-5.69,8.17-9.24,17.5-9.99,27.55-.16,2.15-.41,4.3-.3,6.41-.11,2.11.14,4.26.3,6.41.75,10.05,4.3,19.38,9.99,27.56,3.36,4.83,7.49,9.23,12.24,13.15.03-.36.05-.71.08-1.06.05-.38.08-.75.12-1.14.33-2.67.81-5.35,1.44-8.03,1.08-4.57,2.84-9.04,4.48-13.64,1.23-3.44,5.04-11.24,10.49-21.22.37-.67.85-1.35,1.24-2.04-.38-.69-.86-1.37-1.23-2.04Z"/>
        <path class="cls-1" d="M272.28,129.89c-.74-10.05-4.3-19.38-9.99-27.55-3.37-4.83-7.49-9.24-12.24-13.15-.02.35-.06.7-.08,1.05-.05.38-.07.75-.12,1.14-.34,2.66-.82,5.35-1.45,8.03-1.08,4.57-2.83,9.04-4.47,13.64-1.24,3.43-5.05,11.24-10.5,21.22-.37.67-.85,1.35-1.23,2.04.37.69.86,1.37,1.23,2.04,5.45,9.98,9.26,17.79,10.5,21.21,1.65,4.6,3.39,9.07,4.47,13.65.63,2.68,1.11,5.36,1.45,8.03.04.38.07.76.12,1.13.03.36.06.71.08,1.06,4.74-3.93,8.87-8.32,12.24-13.15,5.69-8.18,9.25-17.51,9.99-27.56.15-2.16.39-4.3.3-6.41.09-2.12-.15-4.26-.3-6.41Z"/>
        <path class="cls-4" d="M71.23,23.2c-9.8,1.76-18.9,5.85-26.54,12.42-1.64,1.41-3.32,2.75-4.74,4.33-1.57,1.42-2.92,3.1-4.33,4.74-6.58,7.64-10.67,16.75-12.42,26.54-1.05,5.8-1.23,11.84-.66,17.96.28-.22.55-.46.82-.68.29-.24.59-.48.88-.72,2.12-1.64,4.36-3.21,6.7-4.66,3.99-2.47,8.4-4.39,12.81-6.48,3.29-1.55,11.52-4.38,22.43-7.58.73-.21,1.54-.35,2.3-.58.22-.75.37-1.57.59-2.3,3.19-10.92,6.02-19.14,7.58-22.44,2.07-4.4,4.01-8.81,6.48-12.8,1.46-2.34,3.01-4.57,4.66-6.7.23-.3.48-.59.71-.88.22-.28.46-.54.67-.81-6.11-.58-12.15-.38-17.95.65Z"/>
        <path class="cls-7" d="M134.26,39.17c-9.98-5.45-17.79-9.26-21.22-10.49-4.58-1.65-9.06-3.4-13.64-4.47-2.68-.63-5.36-1.11-8.03-1.45-.38-.04-.76-.07-1.13-.12-.36-.04-.71-.07-1.07-.09-.21.27-.45.53-.67.81-.23.3-.48.59-.71.88-1.65,2.13-3.2,4.37-4.66,6.7-2.47,3.99-4.41,8.4-6.48,12.8-1.56,3.3-4.39,11.52-7.58,22.44-.22.73-.55,2.24-.52,2.28.03.04,19.87-5.19,34.63-11.52,15.11-6.01,33.06-16.46,33.06-16.51,0-.06-1.32-.9-1.99-1.27Z"/>
        <path class="cls-8" d="M66.18,69.06c-10.91,3.21-19.14,6.03-22.43,7.58-4.41,2.09-8.82,4.01-12.81,6.48-2.34,1.45-4.58,3.01-6.7,4.66-.29.24-.59.48-.88.72-.27.22-.55.45-.82.68.05.35.07.7.1,1.05.05.38.08.75.12,1.14.33,2.66.81,5.35,1.45,8.03,1.07,4.57,2.83,9.04,4.47,13.64,1.23,3.43,5.04,11.24,10.5,21.22.37.67,1.18,1.98,1.25,1.98.05,0,10.39-17.71,16.36-32.63,6.44-14.94,11.73-35.03,11.68-35.07-.04-.04-1.55.3-2.28.51Z"/>
        <path class="cls-6" d="M250.05,183.43c-.27.22-.53.45-.8.67-.3.24-.59.48-.89.71-2.13,1.66-4.36,3.21-6.7,4.66-4,2.47-8.4,4.4-12.81,6.48-3.3,1.56-11.52,4.39-22.43,7.59-.74.22-1.55.35-2.31.58-.22.76-.36,1.58-.57,2.32-3.21,10.9-6.03,19.12-7.58,22.42-2.09,4.41-4.01,8.81-6.48,12.8-1.45,2.34-3.01,4.57-4.66,6.7-.23.3-.48.59-.72.89-.22.28-.45.54-.67.81,6.12.58,12.17.39,17.95-.65,9.8-1.75,18.91-5.84,26.55-12.42,1.64-1.4,3.32-2.76,4.74-4.32,1.57-1.43,2.92-3.11,4.32-4.74,6.58-7.63,10.67-16.74,12.43-26.54,1.03-5.8,1.23-11.84.64-17.95Z"/>
        <path class="cls-8" d="M204.05,204.14s-20.15,5.25-35.09,11.7c-14.9,5.97-32.61,16.29-32.61,16.34s1.31.88,1.98,1.25c9.99,5.44,17.8,9.27,21.23,10.5,4.59,1.65,9.07,3.4,13.64,4.47,2.68.64,5.36,1.11,8.03,1.45.38.05.76.08,1.13.12.36.04.71.07,1.06.09.22-.27.46-.53.67-.81.24-.3.49-.59.72-.89,1.66-2.12,3.21-4.36,4.66-6.7,2.47-3.99,4.39-8.39,6.48-12.8,1.55-3.3,4.38-11.52,7.58-22.42.22-.74.54-2.25.51-2.3Z"/>
        <path class="cls-10" d="M249.97,182.36c-.05-.37-.07-.75-.12-1.13-.33-2.67-.82-5.35-1.45-8.03-1.08-4.58-2.83-9.04-4.47-13.65-1.24-3.43-5.05-11.23-10.5-21.21-.37-.67-1.2-1.98-1.26-1.98s-10.53,17.95-16.53,33.06c-6.33,14.77-11.56,34.58-11.51,34.62.03.04,1.54-.29,2.28-.51,10.91-3.2,19.14-6.03,22.43-7.59,4.41-2.08,8.81-4.01,12.81-6.48,2.34-1.45,4.57-3,6.7-4.66.29-.23.58-.47.89-.71.27-.22.53-.45.8-.67-.02-.36-.06-.71-.08-1.06Z"/>
        <path class="cls-7" d="M103.46,215.75c-14.88-6.38-34.87-11.66-34.91-11.62-.04.05.3,1.56.52,2.3,3.2,10.9,6.02,19.12,7.58,22.42,2.08,4.41,4.01,8.81,6.48,12.8,1.46,2.34,3.01,4.57,4.66,6.7.23.3.48.59.71.89.22.28.46.54.67.81.36-.03.71-.06,1.07-.09.37-.04.75-.07,1.13-.12,2.67-.34,5.35-.81,8.03-1.45,4.57-1.07,9.06-2.82,13.64-4.47,3.43-1.23,11.24-5.06,21.22-10.5.67-.37,1.98-1.19,1.98-1.25s-17.8-10.44-32.79-16.43Z"/>
        <path class="cls-8" d="M56.97,169.44c-6.01-15.12-16.49-33.08-16.54-33.08s-.88,1.31-1.25,1.98c-5.45,9.98-9.26,17.79-10.49,21.22-1.64,4.59-3.4,9.07-4.48,13.64-.63,2.68-1.11,5.36-1.44,8.03-.04.38-.07.76-.12,1.14-.04.35-.06.7-.08,1.06.26.22.53.45.8.67.29.24.59.48.88.71,2.12,1.66,4.36,3.21,6.7,4.66,3.99,2.47,8.4,4.4,12.81,6.48,3.29,1.56,11.52,4.39,22.43,7.59.74.22,2.25.56,2.28.52.03-.05-5.19-19.87-11.5-34.62Z"/>
        <path class="cls-7" d="M249.41,71.23c-1.76-9.8-5.85-18.9-12.42-26.55-1.41-1.63-2.76-3.32-4.33-4.74-1.42-1.57-3.1-2.91-4.74-4.32-7.64-6.58-16.75-10.67-26.56-12.43-5.78-1.03-11.81-1.23-17.95-.65.22.27.46.53.67.81.24.3.49.59.72.88,1.66,2.13,3.21,4.37,4.66,6.7,2.47,3.99,4.39,8.4,6.48,12.8,1.55,3.3,4.38,11.52,7.58,22.44.22.73.36,1.55.58,2.3.75.22,1.57.37,2.31.58,10.91,3.21,19.13,6.03,22.42,7.58,4.41,2.09,8.81,4.01,12.81,6.48,2.34,1.45,4.57,3.01,6.7,4.66.29.24.58.48.89.72.27.22.53.45.8.68.59-6.12.39-12.16-.64-17.95Z"/>
        <path class="cls-7" d="M203.54,66.19c-3.21-10.92-6.03-19.14-7.58-22.44-2.09-4.4-4.01-8.81-6.48-12.8-1.45-2.34-3.01-4.57-4.66-6.7-.23-.3-.48-.58-.72-.88-.22-.28-.45-.54-.67-.81-.35.02-.7.06-1.06.09-.38.04-.75.07-1.13.12-2.67.34-5.35.81-8.04,1.45-4.56,1.07-9.04,2.82-13.63,4.47-3.43,1.23-11.24,5.05-21.23,10.5-.66.37-1.97,1.21-1.98,1.27,0,.05,17.85,10.44,32.88,16.44,14.84,6.37,34.77,11.62,34.81,11.59.03-.04-.3-1.55-.51-2.28Z"/>
        <path class="cls-8" d="M249.25,88.5c-.3-.24-.59-.48-.89-.72-2.13-1.64-4.36-3.21-6.7-4.66-4-2.47-8.4-4.39-12.81-6.48-3.3-1.55-11.52-4.38-22.42-7.58-.74-.21-2.26-.56-2.28-.51-.06.04,5.23,20.15,11.68,35.09,5.97,14.9,16.28,32.6,16.32,32.6.07,0,.92-1.31,1.28-1.98,5.45-9.98,9.26-17.8,10.5-21.22,1.65-4.6,3.39-9.07,4.47-13.64.63-2.68,1.1-5.37,1.45-8.03.04-.38.07-.76.12-1.14.03-.35.06-.7.08-1.05-.27-.22-.53-.46-.8-.68Z"/>
        <path class="cls-3" d="M170.27,10.31c-8.17-5.69-17.5-9.24-27.56-9.99-2.15-.16-4.29-.39-6.4-.3-2.12-.09-4.25.14-6.42.3-10.04.75-19.38,4.3-27.55,9.99-4.83,3.36-9.24,7.49-13.16,12.24.36.02.71.06,1.07.09.37.04.75.07,1.13.12,2.67.34,5.35.81,8.03,1.45,4.57,1.07,9.06,2.82,13.64,4.47,3.43,1.23,11.24,5.05,21.22,10.49.67.37,1.35.84,2.05,1.23.69-.38,1.37-.86,2.03-1.23,9.99-5.45,17.8-9.27,21.23-10.5,4.59-1.65,9.07-3.4,13.63-4.47,2.69-.63,5.36-1.11,8.04-1.45.38-.04.75-.07,1.13-.12.36-.04.71-.07,1.06-.09-3.92-4.74-8.32-8.88-13.15-12.24Z"/>
      </g>
      <g>
        <path class="cls-9" d="M127.13,241.93c-4.48,4.65-9.37,8.77-14.63,12.24-3.89,2.55-7.97,4.75-12.22,6.57.68.53,1.36,1.07,2.06,1.56,8.16,5.69,17.51,9.23,27.55,9.98,2.16.16,4.29.4,6.42.3,2.12.09,4.26-.14,6.4-.3,10.06-.75,19.39-4.29,27.56-9.98,4.83-3.37,9.24-7.49,13.15-12.24-.35-.03-.7-.06-1.06-.09-.37-.04-.75-.07-1.13-.12-2.67-.34-5.35-.81-8.03-1.45-4.57-1.07-9.05-2.82-13.64-4.47-3.43-1.23-11.24-5.06-21.23-10.5-.66-.37-1.34-.84-2.03-1.22-.64.34-1.26.77-1.88,1.12-.84,1.12-1.69,2.23-2.57,3.3-1.52,1.83-3.09,3.6-4.72,5.29Z"/>
        <path class="cls-6" d="M72.05,216.17c-.93-2.91-1.94-6.18-2.98-9.74-.22-.74-.36-1.56-.59-2.32-.75-.22-1.56-.36-2.3-.58-10.91-3.2-19.14-6.03-22.43-7.59-4.41-2.08-8.82-4.01-12.81-6.48-2.34-1.45-4.58-3-6.7-4.66-.29-.23-.59-.47-.88-.71-.27-.22-.55-.45-.8-.67-.58,6.11-.4,12.16.65,17.95,1.75,9.8,5.84,18.91,12.42,26.54.89,1.05,1.8,2.08,2.71,3.08,3.4-1.03,6.75-2.16,10.02-3.39,8.41-3.17,16.33-7.02,23.7-11.44Z"/>
        <path class="cls-2" d="M199.22,83.39c-.21-.51-.71-.74-1.32-.6-10.86,2.3-21.06,6.92-30.29,13.76-8.44,6.24-15.82,14.14-21.94,23.46-1.61,2.46-3.09,4.93-4.41,7.35h0c-.41.55-1.29,2.36-4.25,8.32-.69,1.42-1.37,2.78-1.92,3.88-5.62,11.21-12.07,21.96-19.18,31.94-10.53,14.76-22.38,27.74-35.21,38.52-2.73,1.94-5.72,3.88-8.88,5.77-7.45,4.47-15.4,8.31-23.63,11.42-3.14,1.18-6.5,2.32-10,3.37l-.68.2.65.71c.46.51.95,1.03,1.44,1.49,1.19,1.3,2.56,2.47,3.88,3.59l.91.77c7.53,6.48,16.52,10.7,26.75,12.53,5.66,1.01,11.69,1.24,17.84.67,3.31,3.97,7.01,7.52,11.02,10.57l.21.16.24-.1c4.3-1.85,8.44-4.08,12.28-6.61,5.24-3.46,10.2-7.59,14.72-12.3,1.68-1.74,3.27-3.53,4.74-5.32.93-1.12,1.83-2.3,2.58-3.32,1.4-1.86,2.59-3.54,3.64-5.14,2.73-4.15,5-8.77,7.21-13.23.48-.97.96-1.93,1.44-2.91,3.99-7.99,13.26-36.43,20.69-66.02,6.62-26.4,16.65-46.23,29.8-58.95,1.29-1.25,2.04-3.03,1.66-3.96Z"/>
      </g>
      <path class="cls-2" d="M176.32,83.89c-24.35-6.49-48.47,18.86-56.76,27.55-8.94,9.36-27.26,22.24-31.2,23.7-2.63.98-2.38,2.38-2.38,2.38,0,0,25.28,8.3,45.05-11.86,19.75-20.15,30.43-35.56,46.61-39.12,0,0,3.1-1.47-1.31-2.65Z"/>
    </g>
  </g>
</svg>